<?xml version="1.0" encoding="iso-8859-1"?>
<!-- Uploaded to: SVG Repo, www.svgrepo.com, Generator: SVG Repo Mixer Tools -->
<svg fill="#000000" height="800px" width="800px" version="1.1" id="Layer_1" xmlns="http://www.w3.org/2000/svg" xmlns:xlink="http://www.w3.org/1999/xlink" 
	 viewBox="0 0 512 512" xml:space="preserve">
<g>
	<g>
		<path d="M473.043,233.739c0-11.769-3.177-23.26-9.109-33.391c15.138-25.848,11.194-58.968-10.451-80.613
			c-4.348-4.348-9.197-8.003-14.405-10.952c0.381-2.853,0.574-5.725,0.574-8.608c0-36.824-29.959-66.783-66.783-66.783
			c-2.953,0-5.895,0.2-8.816,0.599C352.426,13.388,330.426,0,306.087,0C286.155,0,268.247,8.789,256,22.68
			C243.753,8.789,225.845,0,205.913,0c-24.339,0-46.339,13.388-57.966,33.99c-39.67-5.416-75.599,25.681-75.599,66.184
			c0,2.883,0.194,5.755,0.574,8.608c-5.208,2.948-10.057,6.605-14.405,10.952c-21.64,21.639-25.594,54.757-10.451,80.613
			c-5.932,10.131-9.109,21.622-9.109,33.391c0,24.339,13.388,46.339,33.99,57.966c-0.007,0.051-0.011,0.102-0.018,0.152
			c-5.237,40.219,26.181,75.447,66.202,75.447c2.953,0,5.895-0.2,8.816-0.599c5.882,10.424,14.422,18.995,24.575,24.926v36.891
			C172.522,474.552,209.97,512,256,512s83.478-37.448,83.478-83.478v-36.891c10.152-5.93,18.692-14.503,24.575-24.925
			c2.922,0.398,5.863,0.599,8.816,0.599c40.518,0,71.586-35.925,66.184-75.599C459.656,280.078,473.043,258.078,473.043,233.739z
			 M173.871,342.585c-1.97-7.282-8.581-12.336-16.117-12.336c-6.55,0-8.678,3.664-18.623,3.664c-44.111,0-44.157-66.783,0-66.783
			c9.22,0,16.696-7.475,16.696-16.696c0-9.22-7.475-16.696-16.696-16.696c-21.74,0-41.081,10.447-53.284,26.578
			c-8.284-6.145-13.499-15.903-13.499-26.578c0-10.374,4.735-17.808,8.707-22.216c5.722-6.351,5.722-15.998,0-22.349
			c-19.882-22.074-3.268-55.609,24.684-55.609c8.919,0,17.305,3.474,23.611,9.78c6.519,6.52,17.091,6.52,23.611,0
			s6.52-17.091,0-23.611c-12.613-12.614-29.384-19.561-47.222-19.561c0-18.412,14.979-33.391,33.391-33.391
			c4.162,0,8.334,0.828,12.403,2.462c9.269,3.721,19.727-1.485,22.338-11.133c3.938-14.555,17.114-24.721,32.042-24.721
			c18.412,0,33.391,14.979,33.391,33.391v101.854c-38.057,7.756-66.783,41.485-66.783,81.799c0,9.22,7.475,16.696,16.696,16.696
			s16.696-7.475,16.696-16.696c0-21.766,13.959-40.323,33.391-47.215v130.694c0,18.412-14.979,33.391-33.391,33.391
			C190.985,367.304,177.809,357.139,173.871,342.585z M256,478.609c-21.766,0-40.323-13.959-47.215-33.391h94.429
			C296.323,464.65,277.766,478.609,256,478.609z M306.087,411.826H205.913v-11.13c19.932,0,37.84-8.789,50.087-22.681
			c12.247,13.892,30.155,22.681,50.087,22.681V411.826z M430.945,211.523c3.972,4.409,8.707,11.843,8.707,22.216
			c0,10.675-5.215,20.433-13.499,26.578c-12.202-16.131-31.544-26.578-53.284-26.578c-9.22,0-16.696,7.475-16.696,16.696
			c0,9.22,7.475,16.696,16.696,16.696c43.947,0,43.925,66.783,0,66.783c-4.162,0-8.334-0.828-12.403-2.462
			c-9.269-3.72-19.726,1.484-22.338,11.133c-3.938,14.555-17.114,24.721-32.042,24.721c-18.412,0-33.391-14.979-33.391-33.391
			V203.219c19.433,6.892,33.391,25.45,33.391,47.215c0,9.22,7.475,16.696,16.696,16.696s16.696-7.475,16.696-16.696
			c0-40.313-28.725-74.042-66.783-81.799V66.783c0-18.412,14.979-33.391,33.391-33.391c14.928,0,28.104,10.165,32.042,24.72
			c2.609,9.641,13.062,14.858,22.338,11.133c4.068-1.633,8.241-2.461,12.403-2.461c18.412,0,33.391,14.979,33.391,33.391
			c-17.838,0-34.609,6.946-47.222,19.561c-6.52,6.52-6.52,17.091,0,23.611c6.519,6.52,17.091,6.52,23.611,0
			c6.308-6.306,14.692-9.78,23.611-9.78c28.082,0,44.509,33.599,24.684,55.608C425.223,195.525,425.223,205.171,430.945,211.523z"/>
	</g>
</g>
</svg>